{
  "accessors": [
    {
      "bufferView": 2,
      "componentType": 5126,
      "count": 4168,
      "max": [
        0.21382300555706024,
        0.9083639979362488,
        0.7546420097351074
      ],
      "min": [
        -0.435824990272522,
        -0.905115008354187,
        0.3168259859085083
      ],
      "type": "VEC3"
    },
    {
      "bufferView": 2,
      "byteOffset": 50016,
      "componentType": 5126,
      "count": 4168,
      "max": [
        1.0,
        1.0,
        1.0
      ],
      "min": [
        -1.0,
        -1.0,
        -1.0
      ],
      "type": "VEC3"
    },
    {
      "bufferView": 1,
      "componentType": 5126,
      "count": 4168,
      "max": [
        2.9917099475860596,
        8.797009468078613
      ],
      "min": [
        -4.909811973571777,
        -3.265505075454712
      ],
      "type": "VEC2"
    },
    {
      "bufferView": 0,
      "componentType": 5125,
      "count": 8472,
      "type": "SCALAR"
    },
    {
      "bufferView": 2,
      "byteOffset": 100032,
      "componentType": 5126,
      "count": 1656,
      "max": [
        0.17113900184631348,
        0.9938079714775085,
        0.8400899767875671
      ],
      "min": [
        -0.47123101353645325,
        -0.990559995174408,
        0.23150299489498138
      ],
      "type": "VEC3"
    },
    {
      "bufferView": 2,
      "byteOffset": 119904,
      "componentType": 5126,
      "count": 1656,
      "max": [
        1.0,
        1.0,
        1.0
      ],
      "min": [
        -0.9999206066131592,
        -1.0,
        -1.0
      ],
      "type": "VEC3"
    },
    {
      "bufferView": 1,
      "byteOffset": 33344,
      "componentType": 5126,
      "count": 1656,
      "max": [
        0.8731539845466614,
        0.9675840139389038
      ],
      "min": [
        0.027094999328255653,
        0.017869999632239342
      ],
      "type": "VEC2"
    },
    {
      "bufferView": 0,
      "byteOffset": 33888,
      "componentType": 5125,
      "count": 5454,
      "type": "SCALAR"
    },
    {
      "bufferView": 2,
      "byteOffset": 139776,
      "componentType": 5126,
      "count": 768,
      "max": [
        0.1512569934129715,
        1.2251900434494019,
        1.0714720487594604
      ],
      "min": [
        -0.5038059949874878,
        -1.2219419479370117,
        0.0
      ],
      "type": "VEC3"
    },
    {
      "bufferView": 2,
      "byteOffset": 148992,
      "componentType": 5126,
      "count": 768,
      "max": [
        0.9872199296951294,
        0.4824216365814209,
        0.4824216365814209
      ],
      "min": [
        -0.9881736040115356,
        -0.4824216365814209,
        -0.4824216365814209
      ],
      "type": "VEC3"
    },
    {
      "bufferView": 3,
      "componentType": 5126,
      "count": 768,
      "max": [
        0.48248010873794556,
        1.0,
        0.013842682354152203,
        1.0
      ],
      "min": [
        -0.48248013854026794,
        0.8182411193847656,
        -0.36397671699523926,
        -1.0
      ],
      "type": "VEC4"
    },
    {
      "bufferView": 1,
      "byteOffset": 46592,
      "componentType": 5126,
      "count": 768,
      "max": [
        0.9935449957847595,
        0.984673023223877
      ],
      "min": [
        0.02621600031852722,
        0.017343999817967415
      ],
      "type": "VEC2"
    },
    {
      "bufferView": 0,
      "byteOffset": 55704,
      "componentType": 5125,
      "count": 3456,
      "type": "SCALAR"
    },
    {
      "bufferView": 2,
      "byteOffset": 158208,
      "componentType": 5126,
      "count": 204,
      "max": [
        0.12033700197935104,
        1.2251900434494019,
        1.0714720487594604
      ],
      "min": [
        -0.4758549928665161,
        -1.2219419479370117,
        0.0
      ],
      "type": "VEC3"
    },
    {
      "bufferView": 2,
      "byteOffset": 160656,
      "componentType": 5126,
      "count": 204,
      "max": [
        0.0,
        1.0,
        1.0
      ],
      "min": [
        0.0,
        -1.0,
        -1.0
      ],
      "type": "VEC3"
    },
    {
      "bufferView": 3,
      "byteOffset": 12288,
      "componentType": 5126,
      "count": 204,
      "max": [
        1.0,
        1.9616982172010466e-06,
        1.360897158519947e-06,
        1.0
      ],
      "min": [
        1.0,
        -9.628389534555026e-07,
        -2.64339973909955e-06,
        -1.0
      ],
      "type": "VEC4"
    },
    {
      "bufferView": 1,
      "byteOffset": 52736,
      "componentType": 5126,
      "count": 204,
      "max": [
        0.6331689953804016,
        0.8611760139465332
      ],
      "min": [
        0.3668310046195984,
        0.138824000954628
      ],
      "type": "VEC2"
    },
    {
      "bufferView": 0,
      "byteOffset": 69528,
      "componentType": 5125,
      "count": 576,
      "type": "SCALAR"
    }
  ],
  "asset": {
    "extras": {
      "author": "HGowl (https://sketchfab.com/hgowl22)",
      "license": "CC-BY-4.0 (http://creativecommons.org/licenses/by/4.0/)",
      "source": "https://sketchfab.com/3d-models/truck-wheels-43876b554e364239baff169fbb40548c",
      "title": "Truck Wheels"
    },
    "generator": "Sketchfab-13.93.0",
    "version": "2.0"
  },
  "bufferViews": [
    {
      "buffer": 0,
      "byteLength": 71832,
      "name": "floatBufferViews",
      "target": 34963
    },
    {
      "buffer": 0,
      "byteLength": 54368,
      "byteOffset": 71832,
      "byteStride": 8,
      "name": "floatBufferViews",
      "target": 34962
    },
    {
      "buffer": 0,
      "byteLength": 163104,
      "byteOffset": 126200,
      "byteStride": 12,
      "name": "floatBufferViews",
      "target": 34962
    },
    {
      "buffer": 0,
      "byteLength": 15552,
      "byteOffset": 289304,
      "byteStride": 16,
      "name": "floatBufferViews",
      "target": 34962
    }
  ],
  "buffers": [
    {
      "byteLength": 304856,
      "uri": "scene.bin"
    }
  ],
  "images": [
    {
      "uri": "textures/Hubs_baseColor.png"
    },
    {
      "uri": "textures/Hubs_metallicRoughness.png"
    },
    {
      "uri": "textures/Rims_baseColor.png"
    },
    {
      "uri": "textures/Tyre_sidewalls_baseColor.png"
    },
    {
      "uri": "textures/Tyre_sidewalls_normal.png"
    },
    {
      "uri": "textures/Tyre_tread_baseColor.png"
    },
    {
      "uri": "textures/Tyre_tread_metallicRoughness.png"
    },
    {
      "uri": "textures/Tyre_tread_normal.png"
    }
  ],
  "materials": [
    {
      "doubleSided": true,
      "name": "Hubs",
      "pbrMetallicRoughness": {
        "baseColorTexture": {
          "index": 0
        },
        "metallicFactor": 0.7732115677321156,
        "metallicRoughnessTexture": {
          "index": 1
        },
        "roughnessFactor": 0.9680365296803652
      }
    },
    {
      "doubleSided": true,
      "name": "Rims",
      "pbrMetallicRoughness": {
        "baseColorTexture": {
          "index": 2
        },
        "metallicFactor": 0.9254185692541856,
        "roughnessFactor": 0.22070015220700157
      }
    },
    {
      "doubleSided": true,
      "name": "Tyre_sidewalls",
      "normalTexture": {
        "index": 4
      },
      "pbrMetallicRoughness": {
        "baseColorTexture": {
          "index": 3
        },
        "metallicFactor": 0.7853881278538812,
        "roughnessFactor": 0.6270928462709284
      }
    },
    {
      "doubleSided": true,
      "name": "Tyre_tread",
      "normalTexture": {
        "index": 7
      },
      "pbrMetallicRoughness": {
        "baseColorTexture": {
          "index": 5
        },
        "metallicFactor": 0.3531202435312024,
        "metallicRoughnessTexture": {
          "index": 6
        }
      }
    }
  ],
  "meshes": [
    {
      "name": "Object_0",
      "primitives": [
        {
          "attributes": {
            "NORMAL": 1,
            "POSITION": 0,
            "TEXCOORD_0": 2
          },
          "indices": 3,
          "material": 0,
          "mode": 4
        }
      ]
    },
    {
      "name": "Object_1",
      "primitives": [
        {
          "attributes": {
            "NORMAL": 5,
            "POSITION": 4,
            "TEXCOORD_0": 6
          },
          "indices": 7,
          "material": 1,
          "mode": 4
        }
      ]
    },
    {
      "name": "Object_2",
      "primitives": [
        {
          "attributes": {
            "NORMAL": 9,
            "POSITION": 8,
            "TANGENT": 10,
            "TEXCOORD_0": 11
          },
          "indices": 12,
          "material": 2,
          "mode": 4
        }
      ]
    },
    {
      "name": "Object_3",
      "primitives": [
        {
          "attributes": {
            "NORMAL": 14,
            "POSITION": 13,
            "TANGENT": 15,
            "TEXCOORD_0": 16
          },
          "indices": 17,
          "material": 3,
          "mode": 4
        }
      ]
    }
  ],
  "nodes": [
    {
      "children": [
        1
      ],
      "matrix": [
        0.4544975459575653,
        -1.9778577983901516e-16,
        0.8907479643821716,
        0.0,
        0.8907479643821716,
        1.0091872803154385e-16,
        -0.4544975459575653,
        0.0,
        0.0,
        1.0,
        2.220446049250313e-16,
        0.0,
        0.0,
        0.0,
        0.0,
        1.0
      ],
      "name": "Sketchfab_model"
    },
    {
      "children": [
        2,
        3,
        4,
        5
      ],
      "name": "db1550bab41a45879f5d3a5f04c463e0.obj.cleaner.materialmerger.gles"
    },
    {
      "mesh": 0,
      "name": "Object_2"
    },
    {
      "mesh": 1,
      "name": "Object_3"
    },
    {
      "mesh": 2,
      "name": "Object_4"
    },
    {
      "mesh": 3,
      "name": "Object_5"
    }
  ],
  "samplers": [
    {
      "magFilter": 9729,
      "minFilter": 9987,
      "wrapS": 10497,
      "wrapT": 10497
    }
  ],
  "scene": 0,
  "scenes": [
    {
      "name": "Sketchfab_Scene",
      "nodes": [
        0
      ]
    }
  ],
  "textures": [
    {
      "sampler": 0,
      "source": 0
    },
    {
      "sampler": 0,
      "source": 1
    },
    {
      "sampler": 0,
      "source": 2
    },
    {
      "sampler": 0,
      "source": 3
    },
    {
      "sampler": 0,
      "source": 4
    },
    {
      "sampler": 0,
      "source": 5
    },
    {
      "sampler": 0,
      "source": 6
    },
    {
      "sampler": 0,
      "source": 7
    }
  ]
}
